version = 1
nColumns = 19
nRows = 30
inDegrees = yes
endheader 
time	r_ground_force_vx	r_ground_force_vy	r_ground_force_vz	r_ground_force_px	r_ground_force_py	r_ground_force_pz	l_ground_force_vx	l_ground_force_vy	l_ground_force_vz	l_ground_force_px	l_ground_force_py	l_ground_force_pz	r_ground_torque_x	r_ground_torque_y	r_ground_torque_z	l_ground_torque_x	l_ground_torque_y	l_ground_torque_z	
          0.00000000	          0.00000000	          0.00000000	          0.00000000	          0.00000000	          0.00000000	          0.00000000	          0.00000000	          0.00000000	          0.00000000	          0.00000000	          0.00000000	          0.00000000	          0.00000000	          0.00000000	          0.00000000	          0.00000000	          0.00000000	          0.00000000	
          0.00062742	          0.00000000	          0.00000000	          0.00000000	          0.00000000	          0.00000000	          0.00000000	          0.00000000	          0.00000000	          0.00000000	          0.00000000	          0.00000000	          0.00000000	          0.00000000	          0.00000000	          0.00000000	          0.00000000	          0.00000000	          0.00000000	
          0.00260981	          0.00000000	          0.00000000	          0.00000000	          0.00000000	          0.00000000	          0.00000000	          0.00000000	          0.00000000	          0.00000000	          0.00000000	          0.00000000	          0.00000000	          0.00000000	          0.00000000	          0.00000000	          0.00000000	          0.00000000	          0.00000000	
          0.00404653	          0.00000000	          0.00000000	          0.00000000	          0.00000000	          0.00000000	          0.00000000	          0.00000000	          0.00000000	          0.00000000	          0.00000000	          0.00000000	          0.00000000	          0.00000000	          0.00000000	          0.00000000	          0.00000000	          0.00000000	          0.00000000	
          0.00467395	          0.00000000	          0.00000000	          0.00000000	          0.00000000	          0.00000000	          0.00000000	          0.00000000	          0.00000000	          0.00000000	          0.00000000	          0.00000000	          0.00000000	          0.00000000	          0.00000000	          0.00000000	          0.00000000	          0.00000000	          0.00000000	
          0.00665634	        -57.56136323	         31.98590796	         -6.98073884	          0.16883385	          0.00000000	          0.00284493	          0.00000000	          0.00000000	          0.00000000	          0.00000000	          0.00000000	          0.00000000	          0.00000000	          0.00002248	          0.00000000	          0.00000000	          0.00000000	          0.00000000	
          0.00809306	        -97.62782480	         59.84527286	        -20.51377835	          0.17004428	          0.00000000	          0.00298647	          0.00000000	          0.00000000	          0.00000000	          0.00000000	          0.00000000	          0.00000000	          0.00000000	          0.00032153	          0.00000000	          0.00000000	          0.00000000	          0.00000000	
          0.00872048	       -124.66874697	         80.44579887	        -31.21603125	          0.17064090	          0.00000000	          0.00298115	          0.00000000	          0.00000000	          0.00000000	          0.00000000	          0.00000000	          0.00000000	          0.00000000	          0.00111136	          0.00000000	          0.00000000	          0.00000000	          0.00000000	
          0.01070287	       -242.90370381	        212.67422760	       -117.79904969	          0.17422355	          0.00000000	          0.00303355	          0.00000000	          0.00000000	          0.00000000	          0.00000000	          0.00000000	          0.00000000	          0.00000000	          0.13461187	          0.00000000	          0.00000000	          0.00000000	          0.00000000	
          0.01213959	       -342.06415893	        402.07834003	       -222.41289926	          0.20063948	          0.00000000	          0.00658720	          0.00000000	          0.00000000	          0.00000000	          0.00000000	          0.00000000	          0.00000000	          0.00000000	          2.26998487	          0.00000000	          0.00000000	          0.00000000	          0.00000000	
          0.01276701	       -451.29548467	        583.28780594	       -150.70388763	          0.23373609	          0.00000000	          0.01118398	          0.00000000	          0.00000000	          0.00000000	          0.00000000	          0.00000000	          0.00000000	          0.00000000	          0.44865117	          0.00000000	          0.00000000	          0.00000000	          0.00000000	
          0.01474940	      -1851.89974822	       3232.11184579	        225.96726011	          0.28031594	          0.00000000	          0.01912044	          0.00000000	          0.00000000	          0.00000000	          0.00000000	          0.00000000	          0.00000000	          0.00000000	         98.99514701	          0.00000000	          0.00000000	          0.00000000	          0.00000000	
          0.01618612	      -1422.03230086	       4359.91885330	        143.48557890	          0.25604580	          0.00000000	          0.01757357	          0.00000000	          0.00000000	          0.00000000	          0.00000000	          0.00000000	          0.00000000	          0.00000000	        123.10661469	          0.00000000	          0.00000000	          0.00000000	          0.00000000	
          0.01681354	       -868.98352673	       4618.70274937	        -47.04204691	          0.24363786	          0.00000000	          0.01617413	          0.00000000	          0.00000000	          0.00000000	          0.00000000	          0.00000000	          0.00000000	          0.00000000	         88.25170477	          0.00000000	          0.00000000	          0.00000000	          0.00000000	
          0.01879593	       -342.57645757	       5257.62006367	       -208.51342342	          0.23487167	          0.00000000	          0.01526687	          0.00000000	          0.00000000	          0.00000000	          0.00000000	          0.00000000	          0.00000000	          0.00000000	         74.88152633	          0.00000000	          0.00000000	          0.00000000	          0.00000000	
          0.02023265	       -486.01012107	       5274.18607815	        -59.78603624	          0.24093629	          0.00000000	          0.01553935	          0.00000000	          0.00000000	          0.00000000	          0.00000000	          0.00000000	          0.00000000	          0.00000000	         78.98805705	          0.00000000	          0.00000000	          0.00000000	          0.00000000	
          0.02086007	       -449.04576518	       5129.36482250	        -32.86223453	          0.24241657	          0.00000000	          0.01518740	          0.00000000	          0.00000000	          0.00000000	          0.00000000	          0.00000000	          0.00000000	          0.00000000	         71.78165900	          0.00000000	          0.00000000	          0.00000000	          0.00000000	
          0.02284246	       -395.41745744	       4582.68452472	        124.71279730	          0.24896440	          0.00000000	          0.01437966	          0.00000000	          0.00000000	          0.00000000	          0.00000000	          0.00000000	          0.00000000	          0.00000000	         52.87552683	          0.00000000	          0.00000000	          0.00000000	          0.00000000	
          0.02427918	       -372.82000145	       4254.23934782	        267.57266058	          0.25418507	          0.00000000	          0.01429008	          0.00000000	          0.00000000	          0.00000000	          0.00000000	          0.00000000	          0.00000000	          0.00000000	         39.30024514	          0.00000000	          0.00000000	          0.00000000	          0.00000000	
          0.02490660	       -362.96853404	       4154.66644799	        342.51180842	          0.25620720	          0.00000000	          0.01439460	          0.00000000	          0.00000000	          0.00000000	          0.00000000	          0.00000000	          0.00000000	          0.00000000	         33.09993496	          0.00000000	          0.00000000	          0.00000000	          0.00000000	
          0.02688899	       -334.40240386	       4092.49937508	        632.58116185	          0.26019078	          0.00000000	          0.01534258	          0.00000000	          0.00000000	          0.00000000	          0.00000000	          0.00000000	          0.00000000	          0.00000000	         11.59487500	          0.00000000	          0.00000000	          0.00000000	          0.00000000	
          0.02832571	       -293.66943185	       4270.44732216	        841.68210910	          0.26071278	          0.00000000	          0.01640634	          0.00000000	          0.00000000	          0.00000000	          0.00000000	          0.00000000	          0.00000000	          0.00000000	         -4.35095805	          0.00000000	          0.00000000	          0.00000000	          0.00000000	
          0.02895313	       -266.17844817	       4393.92786244	        894.48854984	          0.26048372	          0.00000000	          0.01685873	          0.00000000	          0.00000000	          0.00000000	          0.00000000	          0.00000000	          0.00000000	          0.00000000	        -10.54223193	          0.00000000	          0.00000000	          0.00000000	          0.00000000	
          0.03093552	       -152.51751858	       4689.06866578	        822.89435660	          0.26156037	          0.00000000	          0.01839050	          0.00000000	          0.00000000	          0.00000000	          0.00000000	          0.00000000	          0.00000000	          0.00000000	        -12.59190822	          0.00000000	          0.00000000	          0.00000000	          0.00000000	
          0.03237224	        -71.66570581	       4661.86977840	        603.90751782	          0.26485619	          0.00000000	          0.01973396	          0.00000000	          0.00000000	          0.00000000	          0.00000000	          0.00000000	          0.00000000	          0.00000000	         -1.60007258	          0.00000000	          0.00000000	          0.00000000	          0.00000000	
          0.03299966	        -48.37885171	       4557.49480085	        502.36839490	          0.26726162	          0.00000000	          0.02045313	          0.00000000	          0.00000000	          0.00000000	          0.00000000	          0.00000000	          0.00000000	          0.00000000	          4.46050709	          0.00000000	          0.00000000	          0.00000000	          0.00000000	
          0.03498205	         -7.98831849	       3987.22503345	        240.68174317	          0.27792249	          0.00000000	          0.02333814	          0.00000000	          0.00000000	          0.00000000	          0.00000000	          0.00000000	          0.00000000	          0.00000000	         17.51153816	          0.00000000	          0.00000000	          0.00000000	          0.00000000	
          0.03641877	         -7.49540773	       3467.96348261	        110.91399002	          0.28879615	          0.00000000	          0.02622901	          0.00000000	          0.00000000	          0.00000000	          0.00000000	          0.00000000	          0.00000000	          0.00000000	         20.59536585	          0.00000000	          0.00000000	          0.00000000	          0.00000000	
          0.03704619	         -9.14703562	       3235.69368029	         62.03841790	          0.29440776	          0.00000000	          0.02766957	          0.00000000	          0.00000000	          0.00000000	          0.00000000	          0.00000000	          0.00000000	          0.00000000	         19.16881738	          0.00000000	          0.00000000	          0.00000000	          0.00000000	
          0.03902858	         -6.75035966	       2656.17284162	        -37.34960133	          0.31211673	          0.00000000	          0.03184667	          0.00000000	          0.00000000	          0.00000000	          0.00000000	          0.00000000	          0.00000000	          0.00000000	         13.80048439	          0.00000000	          0.00000000	          0.00000000	          0.00000000	
